<?xml version="1.0" encoding="utf-8"?>
<!-- Generator: Adobe Illustrator 15.0.0, SVG Export Plug-In . SVG Version: 6.00 Build 0)  -->
<!DOCTYPE svg PUBLIC "-//W3C//DTD SVG 1.1//EN" "http://www.w3.org/Graphics/SVG/1.1/DTD/svg11.dtd">
<svg version="1.1" id="Layer_1" xmlns="http://www.w3.org/2000/svg" xmlns:xlink="http://www.w3.org/1999/xlink" x="0px" y="0px"
	 width="58px" height="74.09px" viewBox="0 0 58 74.09" enable-background="new 0 0 58 74.09" xml:space="preserve">
<path fill-rule="evenodd" clip-rule="evenodd" fill="#FF7300" d="M14.266,41.917c0-5.463-0.004-10.923,0-16.385
	c0.002-3.125,1.723-4.893,4.842-4.9c7.845-0.015,15.693-0.012,23.541,0.004c2.902,0.006,4.703,1.854,4.705,4.783
	c0.006,11.066,0.004,22.135,0.002,33.201c0,1.725-1.174,2.445-2.742,1.721c-4.381-2.025-8.775-4.027-13.15-6.072
	c-0.504-0.236-0.889-0.18-1.354,0.035c-4.355,2.018-8.717,4.018-13.078,6.026c-1.629,0.747-2.764,0.028-2.764-1.772
	C14.262,53.013,14.266,47.464,14.266,41.917 M17.68,56.265c0.41-0.178,0.668-0.281,0.922-0.398c3.664-1.682,7.336-3.35,10.986-5.064
	c0.844-0.396,1.588-0.406,2.432-0.011c3.652,1.71,7.324,3.38,10.988,5.063c0.273,0.123,0.553,0.238,0.938,0.406v-1.133
	c0-9.814,0-19.628,0.002-29.439c0-1.416-0.213-1.639-1.619-1.639c-7.674-0.002-15.35-0.002-23.023,0
	c-1.416,0-1.625,0.209-1.625,1.627v29.609V56.265z"/>
</svg>
