<?xml version="1.0" encoding="utf-8"?>
<!-- Generator: Adobe Illustrator 15.0.0, SVG Export Plug-In . SVG Version: 6.00 Build 0)  -->
<!DOCTYPE svg PUBLIC "-//W3C//DTD SVG 1.1//EN" "http://www.w3.org/Graphics/SVG/1.1/DTD/svg11.dtd">
<svg version="1.1" id="Layer_1" xmlns="http://www.w3.org/2000/svg" xmlns:xlink="http://www.w3.org/1999/xlink" x="0px" y="0px"
	 width="58px" height="74.09px" viewBox="0 0 58 74.09" enable-background="new 0 0 58 74.09" xml:space="preserve">
<path fill-rule="evenodd" clip-rule="evenodd" fill="#FF7300" d="M26.735,24.686c1.22-1.038,2.306-2.15,3.568-3.002
	c6.592-4.455,16.059-0.898,17.283,7.528c0.619,4.263-0.816,7.942-3.434,11.241c-2.486,3.135-5.441,5.803-8.461,8.395
	c-2.791,2.395-5.643,4.719-8.465,7.08c-0.231,0.193-0.402,0.328-0.705,0.068c-4.369-3.778-8.797-7.49-13.108-11.335
	c-2.297-2.05-4.371-4.354-5.798-7.132c-1.991-3.875-2.432-7.879-0.381-11.846c1.886-3.651,5.019-5.594,9.129-5.885
	c4-0.283,7.154,1.421,9.804,4.265C26.371,24.281,26.571,24.505,26.735,24.686 M26.887,52.449c3.205-2.75,6.41-5.388,9.475-8.179
	c1.859-1.692,3.586-3.552,5.219-5.467c1.721-2.015,2.764-4.379,2.861-7.094c0.113-3.198-1.057-5.788-3.775-7.5
	c-2.801-1.767-5.744-1.75-8.666-0.221c-1.748,0.915-3.02,2.38-4.273,3.853c-0.291,0.341-0.584,0.678-0.842,0.977
	c-1.158-1.216-2.189-2.463-3.389-3.52c-2.793-2.469-6.005-3.156-9.466-1.641c-3.68,1.613-5.498,5.363-4.573,9.852
	c0.535,2.598,1.994,4.686,3.7,6.628c2.541,2.9,5.464,5.398,8.398,7.882C23.289,49.486,25.049,50.924,26.887,52.449"/>
</svg>
