<?xml version="1.0" encoding="utf-8"?>
<!-- Generator: Adobe Illustrator 15.0.0, SVG Export Plug-In . SVG Version: 6.00 Build 0)  -->
<!DOCTYPE svg PUBLIC "-//W3C//DTD SVG 1.1//EN" "http://www.w3.org/Graphics/SVG/1.1/DTD/svg11.dtd">
<svg version="1.1" id="Layer_1" xmlns="http://www.w3.org/2000/svg" xmlns:xlink="http://www.w3.org/1999/xlink" x="0px" y="0px"
	 width="58px" height="74.09px" viewBox="0 0 58 74.09" enable-background="new 0 0 58 74.09" xml:space="preserve">
<path fill-rule="evenodd" clip-rule="evenodd" fill="#FF7300" d="M27.523,22.337c-5.037,0-9.797-0.024-14.555,0.011
	c-2.019,0.01-3.057,1.076-3.06,3.131c-0.018,8.99-0.018,17.981,0,26.97c0.003,1.968,1.039,2.962,3.029,2.964
	c8.885,0.009,17.77,0.009,26.654-0.006c2.383-0.002,3.287-0.91,3.293-3.287c0.016-5.503,0.012-11.004,0.006-16.506
	c0-0.375-0.064-0.75-0.119-1.328c-0.607,0.469-1.027,0.891-1.529,1.16c-1.303,0.699-1.563,1.775-1.504,3.168
	c0.102,2.4,0.029,4.814,0.029,7.222v6.362H13.135V25.561c3.143,0,6.18,0.014,9.215-0.017c0.51-0.005,1.115-0.069,1.51-0.345
	C25.051,24.369,26.159,23.419,27.523,22.337 M18.141,45.262c1.953-4.258,4.379-8.152,8.059-11.09
	c3.755-3.001,8.056-4.262,13.06-3.703v3.979c3.658-2.916,7.096-5.657,10.635-8.478c-3.551-2.814-7.018-5.563-10.732-8.504v5.064
	c-0.463-0.027-0.793-0.037-1.125-0.061c-5.885-0.427-10.793,1.461-14.493,6.164C19.717,33.504,18.389,39.207,18.141,45.262"/>
<path fill-rule="evenodd" clip-rule="evenodd" fill="#FF7300" d="M27.523,22.337c-1.365,1.082-2.473,2.032-3.664,2.862
	c-0.395,0.275-1,0.34-1.51,0.345c-3.035,0.03-6.072,0.017-9.215,0.017v26.637h26.633v-6.362c0-2.407,0.072-4.821-0.029-7.222
	c-0.059-1.393,0.201-2.469,1.504-3.168c0.502-0.27,0.922-0.691,1.529-1.16c0.055,0.578,0.119,0.953,0.119,1.328
	c0.006,5.502,0.01,11.004-0.006,16.506c-0.006,2.377-0.91,3.285-3.293,3.287c-8.885,0.015-17.77,0.015-26.654,0.006
	c-1.99-0.002-3.025-0.996-3.029-2.963c-0.018-8.989-0.018-17.98,0-26.971c0.004-2.055,1.041-3.121,3.06-3.131
	C17.727,22.313,22.486,22.337,27.523,22.337"/>
<path fill-rule="evenodd" clip-rule="evenodd" fill="#FF7300" d="M18.141,45.262c0.248-6.055,1.576-11.758,5.404-16.627
	c3.7-4.703,8.608-6.591,14.493-6.164c0.332,0.023,0.662,0.033,1.125,0.061v-5.064c3.715,2.94,7.182,5.689,10.732,8.504
	c-3.539,2.82-6.977,5.562-10.635,8.478v-3.979c-5.004-0.559-9.305,0.702-13.06,3.703C22.52,37.109,20.094,41.004,18.141,45.262"/>
</svg>
